<svg xmlns="http://www.w3.org/2000/svg" width="384" height="59" fill="none" viewBox="0 0 384 59"><path fill="#ba0c2f" d="m41.61 13.507-8.948-8.924H13.288l-8.994 8.999V45.44l8.994 9.002h19.374l8.948-8.902zm-28.112 3.937 3.62-3.62h11.733l3.619 3.62v24.125l-3.619 3.62H17.119l-3.621-3.62z"/><path fill="#666" d="M12.442 2.214 2.191 12.457v33.917L12.372 56.68h21.196l10.24-10.257V12.454L33.633 2.214zm20.77.924 9.58 9.606.028 33.282-9.673 9.676h-20.29l-9.742-9.747V12.87l9.741-9.73zM17.773 15.213l-2.835 2.834v22.936l2.773 2.775H28.27l2.747-2.752V18.09l-2.875-2.876zm99.315.534c-5.281 0-7.616 3.071-7.616 8.757 0 5.71 2.31 8.856 7.589 8.856 5.28 0 7.612-3.071 7.612-8.757 0-5.71-2.307-8.856-7.585-8.856m61.06 0c-3.891 0-5.735 1.804-5.735 4.773 0 3.653 2.816 4.416 5.474 5.303 1.684.559 3.049.839 3.049 2.793 0 2.157-1.772 2.816-3.761 2.816-1.931 0-3.02-.38-3.02-.38l-.319-2.337h-1.452v3.63s2.366 1.015 5.299 1.015c4.211 0 6.302-1.879 6.302-5.076 0-6.777-8.523-3.983-8.523-8.221 0-1.955 1.51-2.461 2.991-2.461 1.466 0 2.991.328 2.991.328l.334 2.183h1.437v-3.401c-1.437-.558-3.296-.965-5.067-.965m-120.624.307v3.88h1.37l.306-2.106h3.858v13.63l-2.056.303v1.296h7.308V31.76l-2.056-.303v-13.63h3.856l.306 2.107h1.37v-3.881zm186.784 0v1.292l2.062.303V26.1c0 1.879-.16 4.04 1.292 5.486 1.118 1.116 2.889 1.774 5.271 1.774 2.41 0 4.036-.482 5.023-1.47 1.38-1.373 1.554-2.643 1.554-5.56v-8.68l2.062-.304v-1.292h-6.2v1.292l2.062.303v9.952c0 1.293-.334 2.282-.944 2.915-.683.737-1.728.993-2.991.993-2.381 0-3.935-1.117-3.935-3.908V17.65l2.062-.304v-1.292zm-226.133.087h9.623l2.294 2.294v22.182l-2.21 2.21h-9.795l-2.175-2.172v-22.25zm98.914 1.46c2.817 0 4.211 2.283 4.211 6.98 0 4.668-1.443 6.928-4.263 6.928-2.817 0-4.214-2.286-4.214-6.983 0-4.668 1.449-6.924 4.266-6.924m40.268 1.901c-4.487 0-6.461 2.466-6.461 6.88 0 4.415 1.945 6.927 6.446 6.927 4.487 0 6.462-2.46 6.462-6.876 0-4.414-1.946-6.93-6.447-6.93m180.409.002c-3.267 0-4.922 1.444-4.922 3.831 0 3.325 3.151 3.68 5.605 4.518.842.28 1.408.636 1.408 1.65 0 1.447-1.249 1.98-2.875 1.98-1.495 0-2.468-.278-2.468-.278l-.32-2.183h-1.379v3.45s2.091.837 4.574.837c3.528 0 5.401-1.472 5.401-4.061 0-5.278-7.027-3.297-7.027-6.267 0-1.294 1.089-1.726 2.337-1.726s2.367.254 2.367.254l.319 2.08h1.38v-3.3c-1.351-.482-2.904-.785-4.4-.785m-264.958.228v1.22l1.979.303v10.28l-1.98.303v1.218h6.928V31.84l-1.902-.303v-4.646h5.076v4.646l-1.906.303v1.218h6.929V31.84l-1.978-.303v-10.28l1.978-.304v-1.22h-6.93v1.22l1.907.304v4.009h-5.076v-4.01l1.902-.303v-1.22zm16.597 0v1.22l1.981.303v10.28l-1.98.303v1.218h11.493V29.53h-1.292l-.306 1.902h-4.87v-4.594h3.046l.3 1.701h1.143v-4.925h-1.142l-.3 1.7H94.43v-3.958h4.87l.306 1.902h1.292v-3.526zm36.647 0v1.22l1.976.303v10.28l-1.976.303v1.218h6.928V31.84l-1.905-.303v-4.646h5.076v4.646l-1.904.303v1.218h6.929V31.84l-1.98-.303v-10.28l1.98-.304v-1.22h-6.929v1.22l1.904.304v4.009h-5.076v-4.01l1.905-.303v-1.22zm16.774 0v1.22l1.98.303v10.28l-1.98.303v1.218h7V31.84l-1.975-.303v-10.28l1.975-.304v-1.22zm42.355 0v3.68h1.293l.305-2.056h2.947v10.176l-1.989.306v1.218h7.013V31.84l-1.975-.306V21.356h2.933l.305 2.056h1.292v-3.68zm17.787 0-4.574 11.803-1.902.303v1.218h5.823V31.84l-1.902-.303.929-2.412h5.082l.929 2.412-1.902.303v1.218h6.912V31.84l-1.903-.303-4.573-11.803zm8.581 0v3.68h1.293l.305-2.056h2.947v10.176l-1.989.306v1.218h7.013V31.84l-1.989-.306V21.356h2.947l.305 2.056h1.293v-3.68zm13.301 0v1.22l1.974.303v10.28l-1.974.303v1.218h11.485V29.53h-1.292l-.305 1.902h-4.864v-4.594h3.034l.305 1.701h1.147v-4.925h-1.147l-.305 1.7h-3.034v-3.958h4.864l.305 1.902h1.292v-3.526zm37.534 0v1.22l1.974.303v10.28l-1.974.303v1.218h5.953V31.84l-1.975-.303v-7.998l6.781 9.52h2.381V21.255l1.975-.304v-1.22h-5.953v1.22l1.974.304v7.563l-6.505-9.086zm16.697 0v1.22l1.975.303v10.28l-1.975.303v1.218h6.999V31.84l-1.975-.303v-10.28l1.975-.304v-1.22zm8.146 0v1.22l1.902.303 4.443 11.802h2.933l4.443-11.802 1.902-.304v-1.22h-5.808v1.22l1.903.304-3.355 9.137-3.368-9.137 1.902-.304v-1.22zm16.669 0v1.22l1.974.303v10.28l-1.974.303v1.218h11.5V29.53h-1.293l-.305 1.902h-4.878v-4.594h3.049l.305 1.701h1.132v-4.925h-1.132l-.305 1.7h-3.049v-3.958h4.878l.305 1.902h1.293v-3.526zm13.547 0v1.22l1.989.306v10.274l-1.989.306v1.218h6.926V31.84l-1.902-.306v-4.49h.232c1.771 0 2.28.938 3.122 2.97l1.248 3.044h4.313V31.84l-1.902-.306c-.566-1.319-1.525-4.06-2.643-4.895 1.394-.434 2.41-1.83 2.41-3.378 0-.99-.377-1.852-1.059-2.486-1.046-.966-2.643-1.041-4.022-1.041zm27.137 0v1.22l1.975.303v10.28l-1.975.303v1.218h6.999V31.84l-1.975-.303v-10.28l1.975-.304v-1.22zm8.451 0v3.68h1.292l.305-2.056h2.948v10.176l-1.989.306v1.218h7.013V31.84l-1.99-.306V21.356h2.948l.305 2.056h1.292v-3.68zm13.373 0v1.22l1.902.303 3.935 6.014v4.266l-1.989.303v1.218h7.013V31.84l-1.975-.303v-4.266l3.877-6.014 1.902-.304v-1.22h-5.881v1.22l1.815.304-2.715 4.315-2.73-4.315 1.902-.304v-1.22zm-209.043 1.523c2.135 0 3.253 1.572 3.253 5.178 0 3.579-1.162 5.127-3.296 5.127s-3.224-1.574-3.224-5.178c0-3.578 1.133-5.127 3.267-5.127m165.106.024h.9c.682 0 1.771-.049 2.28.483.421.457.551 1.016.551 1.6 0 .583-.101 1.118-.508 1.574-.624.708-1.829.607-2.686.607h-.537zm-118.584 1.015 1.931 5.281h-3.862zM57.566 42.291v.95h324.49v-.95z"/></svg>